ply
format ascii 1.0
element vertex 134
property float x
property float y
property float z
end_header
6.51612138748168945 -0.537376046180725098 0.75
6.51612138748168945 -0.537376046180725098 0.75
12.9354286193847656 0.200279176235198975 0.706350326538085938
12.9354286193847656 0.200279176235198975 0.706350326538085938
12.9014616012573242 9.75958538055419922 0.706304550170898438
12.9014616012573242 9.75958538055419922 0.706304550170898438
16.8148765563964844 13.3689327239990234 0.706421256065368652
16.8148765563964844 13.3689327239990234 0.706421256065368652
16.3267784118652344 34.384368896484375 0.70643460750579834
16.3267784118652344 34.384368896484375 0.70643460750579834
14.3542041778564453 40.9825248718261719 0.706441879272460938
14.3542041778564453 40.9825248718261719 0.706441879272460938
8.05850124359130859 41.2772979736328125 0.706426024436950684
8.05850124359130859 41.2772979736328125 0.706426024436950684
3.98926210403442383 43.2023429870605469 0.706359982490539551
3.98926210403442383 43.2023429870605469 0.706359982490539551
13.55712890625 45.0400543212890625 0.706551492214202881
13.55712890625 45.0400543212890625 0.706551492214202881
14.398402214050293 49.9027175903320312 0.70652616024017334
14.398402214050293 49.9027175903320312 0.70652616024017334
24.8309822082519531 50.15283203125 0.706465959548950195
24.8309822082519531 50.15283203125 0.706465959548950195
30.7455425262451172 50.0470199584960938 0.706403613090515137
30.7455425262451172 50.0470199584960938 0.706403613090515137
30.3469390869140625 39.9744529724121094 0.706510543823242188
30.3469390869140625 39.9744529724121094 0.706510543823242188
15.7826633453369141 39.9376335144042969 0.706379055976867676
15.7826633453369141 39.9376335144042969 0.706379055976867676
23.1969528198242188 39.03057861328125 0.706567287445068359
23.1969528198242188 39.03057861328125 0.706567287445068359
23.3048381805419922 23.2905807495117188 0.706560969352722168
23.3048381805419922 23.2905807495117188 0.706560969352722168
23.4171638488769531 -3.28805160522460938 0.706499576568603516
23.4171638488769531 -3.28805160522460938 0.706499576568603516
31.1214084625244141 -6.93560695648193359 0.706460058689117432
31.1214084625244141 -6.93560695648193359 0.706460058689117432
31.86492919921875 -0.347213268280029297 0.706435918807983398
31.86492919921875 -0.347213268280029297 0.706435918807983398
23.0700626373291016 -6.4427947998046875 0.706446051597595215
23.0700626373291016 -6.4427947998046875 0.706446051597595215
30.8564682006835938 -6.88575935363769531 0.706461310386657715
30.8564682006835938 -6.88575935363769531 0.706461310386657715
31.1762008666992188 0.259917259216308594 0.706512272357940674
31.1762008666992188 0.259917259216308594 0.706512272357940674
22.8027839660644531 -0.0362686812877655029 0.706452846527099609
22.8027839660644531 -0.0362686812877655029 0.706452846527099609
22.8216571807861328 -6.56167125701904297 0.706463515758514404
22.8216571807861328 -6.56167125701904297 0.706463515758514404
33.2292594909667969 -6.78303623199462891 0.706436276435852051
33.2292594909667969 -6.78303623199462891 0.706436276435852051
45.541473388671875 -6.861297607421875 0.706493139266967773
45.541473388671875 -6.861297607421875 0.706493139266967773
48.0075531005859375 7.85264301300048828 0.706423640251159668
48.0075531005859375 7.85264301300048828 0.706423640251159668
47.5624122619628906 33.5258102416992188 0.706435263156890869
47.5624122619628906 33.5258102416992188 0.706435263156890869
47.6869468688964844 39.5647125244140625 0.706503033638000488
47.6869468688964844 39.5647125244140625 0.706503033638000488
42.0406341552734375 39.3442535400390625 0.706502676010131836
42.0406341552734375 39.3442535400390625 0.706502676010131836
41.4965095520019531 49.2124137878417969 0.706564068794250488
41.4965095520019531 49.2124137878417969 0.706564068794250488
49.4717788696289062 54.474456787109375 0.706381618976593018
49.4717788696289062 54.474456787109375 0.706381618976593018
57.695159912109375 54.2837638854980469 0.70653069019317627
57.695159912109375 54.2837638854980469 0.70653069019317627
57.4925384521484375 38.5210723876953125 0.706506311893463135
57.4925384521484375 38.5210723876953125 0.706506311893463135
48.5526924133300781 39.105560302734375 0.706490755081176758
48.5526924133300781 39.105560302734375 0.706490755081176758
47.2858657836914062 6.5366058349609375 0.706417441368103027
47.2858657836914062 6.5366058349609375 0.706417441368103027
48.1738166809082031 -7.15325069427490234 0.706465780735015869
48.1738166809082031 -7.15325069427490234 0.706465780735015869
59.2673454284667969 -6.5206599235534668 0.706462562084197998
59.2673454284667969 -6.5206599235534668 0.706462562084197998
62.2300796508789062 -6.52650928497314453 0.706535100936889648
62.2300796508789062 -6.52650928497314453 0.706535100936889648
62.7479133605957031 3.71490478515625 0.706480503082275391
62.7479133605957031 3.71490478515625 0.706480503082275391
62.481658935546875 11.9303379058837891 0.706418812274932861
62.481658935546875 11.9303379058837891 0.706418812274932861
53.5130958557128906 12.1310129165649414 0.706393301486968994
53.5130958557128906 12.1310129165649414 0.706393301486968994
53.0826835632324219 18.6161231994628906 0.706340491771697998
53.0826835632324219 18.6161231994628906 0.706340491771697998
66.2463531494140625 18.6702861785888672 0.706412792205810547
66.2463531494140625 18.6702861785888672 0.706412792205810547
83.5098648071289062 19.1007156372070312 0.706389427185058594
83.5098648071289062 19.1007156372070312 0.706389427185058594
92.5879669189453125 19.2141189575195312 0.706410706043243408
92.5879669189453125 19.2141189575195312 0.706410706043243408
92.7704849243164062 38.2206802368164062 0.706480801105499268
92.7704849243164062 38.2206802368164062 0.706480801105499268
86.706451416015625 37.9926261901855469 0.70632469654083252
86.706451416015625 37.9926261901855469 0.70632469654083252
87.5210037231445312 43.2899093627929688 0.706373751163482666
87.5210037231445312 43.2899093627929688 0.706373751163482666
95.0725173950195312 43.4568977355957031 0.706482589244842529
95.0725173950195312 43.4568977355957031 0.706482589244842529
102.661239624023438 43.0218391418457031 0.706438541412353516
102.661239624023438 43.0218391418457031 0.706438541412353516
103.334022521972656 48.9461402893066406 0.706481397151947021
103.334022521972656 48.9461402893066406 0.706481397151947021
93.109832763671875 52.8515968322753906 0.706563711166381836
93.109832763671875 52.8515968322753906 0.706563711166381836
86.6248855590820312 45.541473388671875 0.706459939479827881
86.6248855590820312 45.541473388671875 0.706459939479827881
98.5713653564453125 43.6959686279296875 0.706464648246765137
98.5713653564453125 43.6959686279296875 0.706464648246765137
103.396308898925781 37.8274345397949219 0.706473350524902344
103.396308898925781 37.8274345397949219 0.706473350524902344
91.995758056640625 37.6106529235839844 0.706447958946228027
91.995758056640625 37.6106529235839844 0.706447958946228027
92.097869873046875 19.0353965759277344 0.70645374059677124
92.097869873046875 19.0353965759277344 0.70645374059677124
63.1530570983886719 18.5403060913085938 0.706448674201965332
63.1530570983886719 18.5403060913085938 0.706448674201965332
54.3328895568847656 19.0223026275634766 0.706490635871887207
54.3328895568847656 19.0223026275634766 0.706490635871887207
55.7255783081054688 12.5933837890625 0.70647507905960083
55.7255783081054688 12.5933837890625 0.70647507905960083
64.3531875610351562 10.7554121017456055 0.7063140869140625
64.3531875610351562 10.7554121017456055 0.7063140869140625
63.0657386779785156 -6.88768386840820312 0.706540107727050781
63.0657386779785156 -6.88768386840820312 0.706540107727050781
85.9096527099609375 -4.820526123046875 0.706325650215148926
85.9096527099609375 -4.820526123046875 0.706325650215148926
87.3432464599609375 -16.7796096801757812 0.706509113311767578
87.3432464599609375 -16.7796096801757812 0.706509113311767578
69.0797882080078125 -16.9861526489257812 0.706521570682525635
69.0797882080078125 -16.9861526489257812 0.706521570682525635
69.9633255004882812 -7.67172813415527344 0.706368029117584229
69.9633255004882812 -7.67172813415527344 0.706368029117584229
